<svg xmlns="http://www.w3.org/2000/svg" width="30.002" height="30.003" viewBox="0 0 30.002 30.003">
  <defs>
    <style>
      .cls-1 {
        fill: #154581;
      }
    </style>
  </defs>
  <path id="Trazado_4013" data-name="Trazado 4013" class="cls-1" d="M14.361-3.064,7.5-9.926a4.351,4.351,0,0,0-5-.814L-3.75-16.986v-3.639l-7.5-5.625L-15-22.5-9.375-15h3.639L.51-8.754a4.36,4.36,0,0,0,.814,5L8.186,3.111a2.178,2.178,0,0,0,3.088,0L14.361.023A2.189,2.189,0,0,0,14.361-3.064Zm-9.926-10A6.165,6.165,0,0,1,8.824-11.25l1.137,1.137a8.294,8.294,0,0,0,2.566-1.729,8.427,8.427,0,0,0,2.221-8.01.7.7,0,0,0-1.178-.322L9.211-15.814l-3.979-.662L4.57-20.455,8.93-24.814A.707.707,0,0,0,8.6-26a8.441,8.441,0,0,0-8,2.221,8.3,8.3,0,0,0-2.414,6.07L2.988-12.9A6.382,6.382,0,0,1,4.436-13.066Zm-6.088,4.8-3.322-3.322L-13.9-2.648a3.749,3.749,0,0,0,0,5.3,3.749,3.749,0,0,0,5.3,0l7.242-7.242A6.293,6.293,0,0,1-1.652-8.262Zm-9.6,9.668A1.41,1.41,0,0,1-12.656,0,1.4,1.4,0,0,1-11.25-1.406,1.4,1.4,0,0,1-9.844,0,1.407,1.407,0,0,1-11.25,1.406Z" transform="translate(15.003 26.25)"/>
</svg>
