<svg xmlns="http://www.w3.org/2000/svg" width="26.25" height="30" viewBox="0 0 26.25 30">
  <defs>
    <style>
      .cls-1 {
        fill: #154581;
      }
    </style>
  </defs>
  <path id="Trazado_4015" data-name="Trazado 4015" class="cls-1" d="M10.312-22.5H7.5v-3.047a.7.7,0,0,0-.7-.7H4.453a.7.7,0,0,0-.7.7V-22.5h-7.5v-3.047a.7.7,0,0,0-.7-.7H-6.8a.7.7,0,0,0-.7.7V-22.5h-2.812a2.812,2.812,0,0,0-2.812,2.812V.937A2.812,2.812,0,0,0-10.313,3.75H10.312A2.812,2.812,0,0,0,13.125.937V-19.687A2.812,2.812,0,0,0,10.312-22.5ZM9.961.937H-9.961a.352.352,0,0,1-.352-.352V-16.875H10.312V.586A.352.352,0,0,1,9.961.937Zm-3.1-11.757a.7.7,0,0,0,0-.994l-1.32-1.331a.7.7,0,0,0-.994,0L-1.955-6.693-4.539-9.3a.7.7,0,0,0-.994,0l-1.331,1.32a.7.7,0,0,0,0,.994l4.4,4.435a.7.7,0,0,0,.994,0Z" transform="translate(13.125 26.25)"/>
</svg>
