<svg xmlns="http://www.w3.org/2000/svg" width="33.75" height="30" viewBox="0 0 33.75 30"><path d="M24.814-26.25a8.964,8.964,0,0,0-8.877,8.994v4.131H2.812A2.813,2.813,0,0,0,0-10.312V.937A2.813,2.813,0,0,0,2.812,3.75H23.437A2.813,2.813,0,0,0,26.25.937v-11.25a2.813,2.813,0,0,0-2.812-2.812H20.625v-4.166A4.257,4.257,0,0,1,24.8-21.562a4.225,4.225,0,0,1,4.26,4.219v4.687a1.4,1.4,0,0,0,1.406,1.406h1.875a1.4,1.4,0,0,0,1.406-1.406v-4.687A8.916,8.916,0,0,0,24.814-26.25Z" transform="translate(0 26.25)" fill="#007500"/></svg>