<svg xmlns="http://www.w3.org/2000/svg" width="33.75" height="30" viewBox="0 0 33.75 30">
  <defs>
    <style>
      .cls-1 {
        fill: #154581;
      }
    </style>
  </defs>
  <path id="Trazado_3995" data-name="Trazado 3995" class="cls-1" d="M16.875-12.187A3.733,3.733,0,0,0,15-15.417v-8.957a1.894,1.894,0,0,0-1.875-1.876,1.871,1.871,0,0,0-1.171.411L6.972-21.852a14.221,14.221,0,0,1-8.847,3.1h-11.25A3.75,3.75,0,0,0-16.875-15v5.625a3.75,3.75,0,0,0,3.75,3.75h1.975a14.232,14.232,0,0,0-.128,1.875,14.844,14.844,0,0,0,1.5,6.5,1.839,1.839,0,0,0,1.664,1h4.352A1.863,1.863,0,0,0-2.247.788,7.462,7.462,0,0,1-3.779-3.75,7.09,7.09,0,0,1-3.52-5.625h1.645a14.218,14.218,0,0,1,8.846,3.1l4.982,3.986a2.184,2.184,0,0,0,1.171.411A1.882,1.882,0,0,0,15,0V-8.957A3.734,3.734,0,0,0,16.875-12.187ZM11.25-3.9,9.313-5.45A17.977,17.977,0,0,0-1.875-9.375V-15A17.977,17.977,0,0,0,9.313-18.925l1.937-1.549Z" transform="translate(16.875 26.25)"/>
</svg>
