<svg xmlns="http://www.w3.org/2000/svg" width="54.25" height="62" viewBox="0 0 54.25 62"><path d="M21.312-46.5H15.5v-6.3a1.453,1.453,0,0,0-1.453-1.453H9.2A1.453,1.453,0,0,0,7.75-52.8v6.3H-7.75v-6.3A1.453,1.453,0,0,0-9.2-54.25h-4.844A1.453,1.453,0,0,0-15.5-52.8v6.3h-5.812a5.812,5.812,0,0,0-5.812,5.812V1.937A5.812,5.812,0,0,0-21.313,7.75H21.312a5.812,5.812,0,0,0,5.812-5.812V-40.687A5.812,5.812,0,0,0,21.312-46.5ZM20.586,1.937H-20.586a.727.727,0,0,1-.727-.727V-34.875H21.312V1.211A.727.727,0,0,1,20.586,1.937Zm-6.4-24.3a1.453,1.453,0,0,0,.008-2.055l-2.729-2.751a1.453,1.453,0,0,0-2.055-.008L-4.04-13.832-9.38-19.216a1.453,1.453,0,0,0-2.055-.008L-14.186-16.5a1.453,1.453,0,0,0-.008,2.055L-5.1-5.273a1.453,1.453,0,0,0,2.055.008Z" transform="translate(27.125 54.25)" fill="#154581"/></svg>