<svg xmlns="http://www.w3.org/2000/svg" width="26.156" height="26.156" viewBox="0 0 26.156 26.156"><path d="M.422-10.125A13.076,13.076,0,0,0,13.5,2.953,13.076,13.076,0,0,0,26.578-10.125,13.076,13.076,0,0,0,13.5-23.2,13.076,13.076,0,0,0,.422-10.125ZM13.5-21.516A11.39,11.39,0,0,1,24.891-10.125,11.39,11.39,0,0,1,13.5,1.266,11.39,11.39,0,0,1,2.109-10.125,11.39,11.39,0,0,1,13.5-21.516ZM18.067-9.677a.645.645,0,0,0,.005-.9L12-16.643a.633.633,0,0,0-.9,0l-.374.374a.633.633,0,0,0,0,.9l5.247,5.247L10.726-4.883a.633.633,0,0,0,0,.9l.374.374a.633.633,0,0,0,.9,0Z" transform="translate(-0.422 23.203)" fill="#fff"/></svg>