<svg xmlns="http://www.w3.org/2000/svg" viewBox="0 0 731.4 503.1"><defs><style>.cls-1{fill:#ffce00;}.cls-2{fill:#020202;}</style></defs><title>Recurso 1</title><g id="Capa_2" data-name="Capa 2"><g id="Capa_1-2" data-name="Capa 1"><rect class="cls-1" width="731.4" height="503.1"/><path class="cls-2" d="M118.42,187.19h5.69v42.5H118V196.62l-13.07,16.43h-1.12L90.59,196.62v33.07H84.51v-42.5h5.76l14.12,17.46Z"/><path class="cls-2" d="M134.39,187.19h6.08v42.5h-6.08Z"/><path class="cls-2" d="M184.73,187.19h5.78v42.5h-5.23L156.86,197v32.73h-5.71v-42.5h4.92l28.66,33Z"/><path class="cls-2" d="M200.72,187.19h6.09v42.5h-6.09Z"/><path class="cls-2" d="M227.82,211.88l-4.62-2.81a21.09,21.09,0,0,1-6.19-5.22,9.91,9.91,0,0,1-1.84-5.92,10.45,10.45,0,0,1,3.48-8.15,13,13,0,0,1,9-3.14,17.18,17.18,0,0,1,9.77,3v6.91q-4.6-4.42-9.89-4.42a8.18,8.18,0,0,0-4.9,1.38,4.16,4.16,0,0,0-1.91,3.53,5.43,5.43,0,0,0,1.41,3.57,17.42,17.42,0,0,0,4.54,3.5l4.64,2.75q7.78,4.65,7.78,11.83a10.84,10.84,0,0,1-3.42,8.3,12.52,12.52,0,0,1-8.9,3.2,18.71,18.71,0,0,1-11.47-3.88v-7.72q4.93,6.24,11.41,6.24a7.18,7.18,0,0,0,4.76-1.59,5,5,0,0,0,1.9-4Q233.42,215.37,227.82,211.88Z"/><path class="cls-2" d="M243.27,187.13h35.5v5.42H264v37.14h-6.12V192.55H243.27Z"/><path class="cls-2" d="M285.58,187.19h24.09v5.42h-18v13h17.4V211h-17.4v13.2h18.59v5.42H285.58Z"/><path class="cls-2" d="M318,229.69v-42.5h10.65q6.45,0,10.24,3.2a10.7,10.7,0,0,1,3.78,8.64,10.62,10.62,0,0,1-7.18,10.46,18.78,18.78,0,0,1,4,3.65,73.13,73.13,0,0,1,5.47,8.06c1.49,2.41,2.67,4.23,3.56,5.45l2.26,3H343.5l-1.86-2.8c-.06-.1-.18-.28-.36-.52l-1.19-1.67-1.88-3.11-2-3.32a32.3,32.3,0,0,0-3.45-4.16,13,13,0,0,0-2.83-2.23,9.48,9.48,0,0,0-4.25-.69h-1.58v18.5Zm7.91-37.33h-1.82v13.42h2.31c3.08,0,5.2-.27,6.34-.79a6,6,0,0,0,2.68-2.39,6.94,6.94,0,0,0,1-3.64,6.49,6.49,0,0,0-1.07-3.63,5.71,5.71,0,0,0-3-2.3A21.88,21.88,0,0,0,325.88,192.36Z"/><path class="cls-2" d="M356.54,187.19h6.08v42.5h-6.08Z"/><path class="cls-2" d="M394,186.58a22.85,22.85,0,0,1,16.4,6.24,20.72,20.72,0,0,1,6.55,15.64A20.36,20.36,0,0,1,410.31,224q-6.62,6.17-16.68,6.17a22.14,22.14,0,0,1-16-6.17,20.5,20.5,0,0,1-6.4-15.43,21,21,0,0,1,6.44-15.76Q384.12,186.58,394,186.58Zm.24,5.78a16.47,16.47,0,0,0-12,4.57,15.54,15.54,0,0,0-4.7,11.65A15.22,15.22,0,0,0,382.24,220a17.47,17.47,0,0,0,23.66-.09,15.54,15.54,0,0,0,4.75-11.59A15.19,15.19,0,0,0,405.9,197,16.19,16.19,0,0,0,394.21,192.36Z"/><path class="cls-2" d="M84.69,295.84V253.4H99q8.67,0,13.72,2.6a19.75,19.75,0,0,1,8,7.65,21.37,21.37,0,0,1,3,11,20.85,20.85,0,0,1-1.64,8.15,21.1,21.1,0,0,1-11.9,11.44,22.37,22.37,0,0,1-4.41,1.26,59.57,59.57,0,0,1-7.67.32Zm13.69-37H90.77v31.6h7.79a31,31,0,0,0,7.09-.62,16.72,16.72,0,0,0,4.21-1.58,14.39,14.39,0,0,0,3.09-2.36,15.75,15.75,0,0,0,4.5-11.53,14.75,14.75,0,0,0-8.53-13.81,16.29,16.29,0,0,0-4.18-1.37A43.18,43.18,0,0,0,98.38,258.82Z"/><path class="cls-2" d="M132.41,253.4H156.5v5.42h-18v13h17.4v5.44H138.5v13.2h18.58v5.42H132.41Z"/><path class="cls-2" d="M212.56,253.4h6.11v24.12a29.08,29.08,0,0,1-.71,7.4,16.23,16.23,0,0,1-1.77,4.15,13.17,13.17,0,0,1-2.57,3c-3.36,2.9-7.77,4.34-13.2,4.34s-10-1.43-13.32-4.31a13.77,13.77,0,0,1-2.57-3,15.74,15.74,0,0,1-1.74-4.06,30,30,0,0,1-.68-7.55V253.4h6.11v24.12q0,6,1.37,8.34a9.78,9.78,0,0,0,4.17,3.76,14.47,14.47,0,0,0,6.6,1.41,13.32,13.32,0,0,0,8.82-2.83,8.74,8.74,0,0,0,2.59-3.59,22.31,22.31,0,0,0,.79-7.09Z"/><path class="cls-2" d="M261.92,253.4h5.78v42.5h-5.23l-28.41-32.73V295.9h-5.72V253.4h4.93l28.65,33Z"/><path class="cls-2" d="M277.92,253.4H284v42.5h-6.08Z"/><path class="cls-2" d="M321.41,253.4h6.06l-18,42.68h-1.38L289.81,253.4h6.12l12.78,29.84Z"/><path class="cls-2" d="M333.18,253.4h24.09v5.42h-18v13h17.4v5.44h-17.4v13.2h18.58v5.42H333.18Z"/><path class="cls-2" d="M365.57,295.9V253.4h10.65q6.45,0,10.24,3.2a10.7,10.7,0,0,1,3.78,8.64,10.62,10.62,0,0,1-7.18,10.46,18.78,18.78,0,0,1,4,3.65,74.3,74.3,0,0,1,5.48,8.06q2.22,3.61,3.55,5.45l2.26,3H391.1l-1.86-2.8c-.06-.1-.18-.28-.36-.52l-1.19-1.67-1.88-3.11-2-3.32a32.3,32.3,0,0,0-3.45-4.16,13,13,0,0,0-2.83-2.23,9.48,9.48,0,0,0-4.25-.69h-1.58v18.5Zm7.91-37.33h-1.82V272H374c3.08,0,5.2-.27,6.34-.79a6,6,0,0,0,2.68-2.39,6.94,6.94,0,0,0,1-3.64,6.49,6.49,0,0,0-1.07-3.63,5.71,5.71,0,0,0-3-2.3A21.88,21.88,0,0,0,373.48,258.57Z"/><path class="cls-2" d="M414.61,278.09,410,275.28a21.09,21.09,0,0,1-6.19-5.22,9.91,9.91,0,0,1-1.84-5.92,10.45,10.45,0,0,1,3.48-8.15,13,13,0,0,1,9.05-3.14,17.15,17.15,0,0,1,9.77,3v6.91q-4.59-4.42-9.89-4.42a8.18,8.18,0,0,0-4.9,1.38,4.19,4.19,0,0,0-1.91,3.53,5.43,5.43,0,0,0,1.41,3.57,17.42,17.42,0,0,0,4.54,3.5l4.65,2.75q7.77,4.65,7.77,11.83a10.84,10.84,0,0,1-3.42,8.3,12.52,12.52,0,0,1-8.9,3.19,18.7,18.7,0,0,1-11.47-3.87v-7.72q4.94,6.24,11.41,6.24a7.16,7.16,0,0,0,4.76-1.59,5,5,0,0,0,1.9-4Q420.2,281.58,414.61,278.09Z"/><path class="cls-2" d="M433.73,253.4h6.09v42.5h-6.09Z"/><path class="cls-2" d="M450.37,295.84V253.4H464.7q8.67,0,13.72,2.6a19.75,19.75,0,0,1,8,7.65,21.37,21.37,0,0,1,3,11,20.85,20.85,0,0,1-1.64,8.15,21.1,21.1,0,0,1-11.9,11.44,22.37,22.37,0,0,1-4.41,1.26,59.57,59.57,0,0,1-7.67.32Zm13.69-37h-7.61v31.6h7.79a31,31,0,0,0,7.09-.62,16.72,16.72,0,0,0,4.21-1.58,14.39,14.39,0,0,0,3.09-2.36,15.75,15.75,0,0,0,4.5-11.53,14.75,14.75,0,0,0-8.53-13.81,16.29,16.29,0,0,0-4.18-1.37A43.18,43.18,0,0,0,464.06,258.82Z"/><path class="cls-2" d="M508.22,253.16h4.28l19,42.74h-6.22l-5.67-12.6H501.53l-5.31,12.6H490Zm8.94,24.73L510.3,262.5,504,277.89Z"/><path class="cls-2" d="M537.33,295.84V253.4h14.33q8.67,0,13.72,2.6a19.75,19.75,0,0,1,8,7.65,21.37,21.37,0,0,1,3,11,20.68,20.68,0,0,1-1.65,8.15,21,21,0,0,1-11.89,11.44,22.37,22.37,0,0,1-4.41,1.26,59.68,59.68,0,0,1-7.67.32Zm13.69-37h-7.61v31.6h7.79a31,31,0,0,0,7.09-.62,16.87,16.87,0,0,0,4.21-1.58,14.64,14.64,0,0,0,3.09-2.36,15.75,15.75,0,0,0,4.5-11.53,14.75,14.75,0,0,0-8.53-13.81,16.23,16.23,0,0,0-4.19-1.37A42.93,42.93,0,0,0,551,258.82Z"/><path class="cls-2" d="M585.05,253.4h24.09v5.42h-18v13h17.4v5.44h-17.4v13.2h18.59v5.42H585.05Z"/><path class="cls-2" d="M627.79,278.09l-4.63-2.81a21.09,21.09,0,0,1-6.19-5.22,9.91,9.91,0,0,1-1.84-5.92,10.45,10.45,0,0,1,3.48-8.15,13,13,0,0,1,9-3.14,17.15,17.15,0,0,1,9.77,3v6.91q-4.59-4.42-9.89-4.42a8.18,8.18,0,0,0-4.9,1.38,4.19,4.19,0,0,0-1.91,3.53,5.43,5.43,0,0,0,1.41,3.57,17.42,17.42,0,0,0,4.54,3.5l4.65,2.75q7.77,4.65,7.77,11.83a10.84,10.84,0,0,1-3.42,8.3,12.52,12.52,0,0,1-8.9,3.19,18.7,18.7,0,0,1-11.47-3.87v-7.72q4.94,6.24,11.41,6.24a7.16,7.16,0,0,0,4.76-1.59,5,5,0,0,0,1.9-4Q633.38,281.58,627.79,278.09Z"/></g></g></svg>