<svg xmlns="http://www.w3.org/2000/svg" width="33.75" height="22.5" viewBox="0 0 33.75 22.5">
  <defs>
    <style>
      .cls-1 {
        fill: #154581;
      }
    </style>
  </defs>
  <path id="Trazado_4014" data-name="Trazado 4014" class="cls-1" d="M15.469-22.5H-11.719a1.406,1.406,0,0,0-1.406,1.406v.469h-2.344a1.406,1.406,0,0,0-1.406,1.406V-3.281A3.281,3.281,0,0,0-13.594,0H14.062a2.812,2.812,0,0,0,2.812-2.812V-21.094A1.406,1.406,0,0,0,15.469-22.5ZM-13.594-2.812a.469.469,0,0,1-.469-.469V-17.812h.937V-3.281A.469.469,0,0,1-13.594-2.812ZM.234-3.75H-8.672a.7.7,0,0,1-.7-.7v-.469a.7.7,0,0,1,.7-.7H.234a.7.7,0,0,1,.7.7v.469A.7.7,0,0,1,.234-3.75Zm12.187,0H3.516a.7.7,0,0,1-.7-.7v-.469a.7.7,0,0,1,.7-.7h8.906a.7.7,0,0,1,.7.7v.469A.7.7,0,0,1,12.422-3.75ZM.234-9.375H-8.672a.7.7,0,0,1-.7-.7v-.469a.7.7,0,0,1,.7-.7H.234a.7.7,0,0,1,.7.7v.469A.7.7,0,0,1,.234-9.375Zm12.187,0H3.516a.7.7,0,0,1-.7-.7v-.469a.7.7,0,0,1,.7-.7h8.906a.7.7,0,0,1,.7.7v.469A.7.7,0,0,1,12.422-9.375Zm0-5.625H-8.672a.7.7,0,0,1-.7-.7v-2.344a.7.7,0,0,1,.7-.7H12.422a.7.7,0,0,1,.7.7V-15.7A.7.7,0,0,1,12.422-15Z" transform="translate(16.875 22.5)"/>
</svg>
