<svg xmlns="http://www.w3.org/2000/svg" width="28" height="28" viewBox="0 0 28 28">
  <defs>
    <style>
      .cls-1 {
        fill: #154581;
      }
    </style>
  </defs>
  <path id="Trazado_4005" data-name="Trazado 4005" class="cls-1" d="M17.862-14.361a10.046,10.046,0,0,0-1.122-.94.878.878,0,0,0-1.126.095l-1.151,1.151a2.178,2.178,0,0,0-.64,1.63.987.987,0,0,0,.38.689,4.1,4.1,0,0,1,.566.469,3.936,3.936,0,0,1,0,5.569L11.093-2.024a3.942,3.942,0,0,1-5.6-.028A3.97,3.97,0,0,1,5.56-7.628l.716-.716a.88.88,0,0,0,.207-.908,10.077,10.077,0,0,1-.53-2.883.874.874,0,0,0-1.493-.58L2.431-10.686a8.321,8.321,0,0,0,0,11.756,8.322,8.322,0,0,0,11.756,0l3.675-3.675.02-.02A8.308,8.308,0,0,0,17.862-14.361Zm7.707-7.708a8.322,8.322,0,0,0-11.756,0l-3.675,3.675-.02.02a8.308,8.308,0,0,0,.02,11.735,10.044,10.044,0,0,0,1.122.94.879.879,0,0,0,1.126-.095l1.151-1.151a2.178,2.178,0,0,0,.64-1.63.987.987,0,0,0-.38-.689,4.1,4.1,0,0,1-.566-.469,3.936,3.936,0,0,1,0-5.569l3.675-3.674a3.942,3.942,0,0,1,5.6.028,3.97,3.97,0,0,1-.063,5.576l-.716.716a.88.88,0,0,0-.207.908,10.078,10.078,0,0,1,.53,2.883.874.874,0,0,0,1.493.58l2.029-2.029A8.321,8.321,0,0,0,25.569-22.069Z" transform="translate(0 24.5)"/>
</svg>
