<svg xmlns="http://www.w3.org/2000/svg" width="157" height="19.146" viewBox="0 0 157 19.146"><g transform="translate(0 0)"><path d="M17.095,2.25H2.051A2.052,2.052,0,0,0,0,4.3V19.345A2.052,2.052,0,0,0,2.051,21.4H17.095a2.052,2.052,0,0,0,2.051-2.051V4.3A2.052,2.052,0,0,0,17.095,2.25Zm-2.09,6.787c.009.12.009.244.009.363a7.92,7.92,0,0,1-7.975,7.975,7.938,7.938,0,0,1-4.3-1.256,5.905,5.905,0,0,0,.675.034,5.62,5.62,0,0,0,3.479-1.2,2.807,2.807,0,0,1-2.62-1.945,3.021,3.021,0,0,0,1.265-.051,2.8,2.8,0,0,1-2.244-2.752v-.034a2.8,2.8,0,0,0,1.265.355A2.8,2.8,0,0,1,3.308,8.195a2.768,2.768,0,0,1,.38-1.415A7.959,7.959,0,0,0,9.466,9.712a2.809,2.809,0,0,1,4.782-2.56,5.492,5.492,0,0,0,1.778-.675A2.8,2.8,0,0,1,14.8,8.02a5.578,5.578,0,0,0,1.615-.436A5.9,5.9,0,0,1,15.005,9.037Z" transform="translate(137.854 -2.25)" fill="#fff"/><path d="M17.095,2.25H2.051A2.051,2.051,0,0,0,0,4.3V19.345A2.051,2.051,0,0,0,2.051,21.4H7.917V14.887H5.225V11.823H7.917V9.488c0-2.656,1.581-4.123,4-4.123a16.311,16.311,0,0,1,2.373.207V8.179H12.957a1.532,1.532,0,0,0-1.727,1.655v1.989h2.939l-.47,3.064H11.229V21.4h5.866a2.051,2.051,0,0,0,2.051-2.051V4.3A2.051,2.051,0,0,0,17.095,2.25Z" transform="translate(103.39 -2.25)" fill="#fff"/><path d="M9.572,6.217a4.908,4.908,0,1,0,4.908,4.908A4.9,4.9,0,0,0,9.572,6.217Zm0,8.1a3.191,3.191,0,1,1,3.191-3.191A3.2,3.2,0,0,1,9.572,14.316Zm6.253-8.3A1.145,1.145,0,1,1,14.68,4.872,1.142,1.142,0,0,1,15.825,6.016Zm3.25,1.162a5.665,5.665,0,0,0-1.546-4.011,5.7,5.7,0,0,0-4.011-1.546c-1.58-.09-6.317-.09-7.9,0A5.694,5.694,0,0,0,1.61,3.163,5.683,5.683,0,0,0,.064,7.174c-.09,1.58-.09,6.317,0,7.9A5.665,5.665,0,0,0,1.61,19.083a5.709,5.709,0,0,0,4.011,1.546c1.58.09,6.317.09,7.9,0a5.665,5.665,0,0,0,4.011-1.546,5.7,5.7,0,0,0,1.546-4.011C19.165,13.491,19.165,8.759,19.075,7.178Zm-2.042,9.589a3.23,3.23,0,0,1-1.82,1.82c-1.26.5-4.25.384-5.642.384s-4.387.111-5.642-.384a3.23,3.23,0,0,1-1.82-1.82c-.5-1.26-.384-4.25-.384-5.642s-.111-4.387.384-5.642a3.23,3.23,0,0,1,1.82-1.82c1.26-.5,4.25-.384,5.642-.384s4.387-.111,5.642.384a3.23,3.23,0,0,1,1.82,1.82c.5,1.26.384,4.25.384,5.642S17.533,15.512,17.034,16.767Z" transform="translate(68.931 -1.554)" fill="#fff"/><path d="M7.983,8.832l4.069,2.312L7.983,13.456ZM19.146,3.614V18.657a2.052,2.052,0,0,1-2.051,2.051H2.051A2.052,2.052,0,0,1,0,18.657V3.614A2.052,2.052,0,0,1,2.051,1.563H17.095A2.052,2.052,0,0,1,19.146,3.614Zm-1.795,7.535a20.536,20.536,0,0,0-.325-3.769A1.951,1.951,0,0,0,15.65,5.994a45.893,45.893,0,0,0-6.077-.329A45.893,45.893,0,0,0,3.5,5.994,1.951,1.951,0,0,0,2.12,7.379a20.51,20.51,0,0,0-.325,3.769,20.536,20.536,0,0,0,.325,3.769A1.923,1.923,0,0,0,3.5,16.281a46.491,46.491,0,0,0,6.077.325,45.893,45.893,0,0,0,6.077-.329,1.923,1.923,0,0,0,1.376-1.363A20.472,20.472,0,0,0,17.351,11.148Z" transform="translate(34.463 -1.563)" fill="#fff"/><path d="M17.095,1.563H2.051A2.052,2.052,0,0,0,0,3.614V18.657a2.052,2.052,0,0,0,2.051,2.051H17.095a2.052,2.052,0,0,0,2.051-2.051V3.614A2.052,2.052,0,0,0,17.095,1.563ZM6.176,13.828a2.714,2.714,0,1,1,2.714-2.714A2.712,2.712,0,0,1,6.176,13.828Zm6.8,0a2.714,2.714,0,1,1,2.714-2.714A2.712,2.712,0,0,1,12.971,13.828Z" transform="translate(0 -1.563)" fill="#fff"/></g></svg>