<?xml version="1.0" encoding="utf-8"?>
<!-- Generator: Adobe Illustrator 23.0.3, SVG Export Plug-In . SVG Version: 6.00 Build 0)  -->
<svg version="1.1" id="Capa_1" xmlns="http://www.w3.org/2000/svg" xmlns:xlink="http://www.w3.org/1999/xlink" x="0px" y="0px"
	 viewBox="0 0 2500 2500" style="enable-background:new 0 0 2500 2500;" xml:space="preserve">
<style type="text/css">
	.st0{fill-rule:evenodd;clip-rule:evenodd;fill:#D7DDD8;}
	.st1{fill-rule:evenodd;clip-rule:evenodd;fill:#FFFFFF;}
	.st2{fill-rule:evenodd;clip-rule:evenodd;fill:#F4CF53;}
	.st3{fill-rule:evenodd;clip-rule:evenodd;fill:#D9782D;}
	.st4{fill-rule:evenodd;clip-rule:evenodd;fill:#005981;}
</style>
<g>
	<path class="st0" d="M783.6,580.3l943-1.5v944.5h-943V580.3z"/>
	<path class="st1" d="M1048.9,740.9l677.8,596.7v185.6h-943v-134.1L1048.9,740.9z"/>
	<path class="st2" d="M1218.3,1071l3,5.9c2.9,0,7.4,1.5,11.8,1.5v3l5.9-1.5l3,8.8l4.4,1.5c0,0,1.5-4.4,3-2.9l2.9,10.3
		c4.4-1.5,17.7,11.8,17.7,14.7h2.9l4.4,5.9h5.9c1.5,10.3,20.6,22.1,28,30.9h1.5v13.3c-20.6-2.9-123.8-2.9-142.9,1.5l-1.5-1.5
		l-5.9,1.5l-1.5-1.5l-1.5,2.9h-22.1c1.5-4.4-5.9-2.9-4.4,0c-4.4-2.9-11.8-1.5-17.7,0v-2.9l-7.4,1.5v-1.5l-2.9,2.9h-16.2l-2.9-2.9
		c0,0-5.9,8.8-4.4,0c-8.8,1.5-17.7,1.5-26.5,1.5v-16.2l2.9,1.5c3-5.9,4.4-13.3,3-20.6h4.4c2.9-8.8,7.4-20.6,7.4-30.9h2.9
		c3-1.5,5.9-5.9,3-10.3h4.4v-5.9c4.4-3,11.8-4.4,17.7-3v3l2.9-4.4c5.9,0,10.3,5.9,14.7,4.4c0-5.9,20.6-5.9,23.6-4.4l1.5,1.5l4.4-4.4
		c1.5-1.5,7.4,2.9,2.9,2.9l8.8,4.4l1.5-3c8.8-7.4,16.2-1.5,26.5-4.4v5.9l13.3,1.5l1.5-3l4.4,3l5.9-4.4l-1.5-1.5l3-3l1.5,1.5
		L1218.3,1071L1218.3,1071z"/>
	<path class="st3" d="M1439.3,1256.6c0,0-1.5,4.4,1.5,4.4c1.5,0,1.5,3,4.4,1.5c2.9,0,1.5,3,1.5,3s2.9,0,1.5,1.5l2.9,3h5.9v3
		c0,0,2.9,2.9,4.4,5.9c1.5,4.4,5.9,7.4,5.9,7.4l2.9-1.5l1.5-1.5c0,0,1.5,3,7.3,7.4c1.5,0,0,2.9,4.4,4.4c1.5,1.5,5.9,4.4,5.9,4.4
		l-3,1.5l5.9,4.4c0,8.8,7.4,4.4,7.4,4.4s1.5,1.5-1.5,5.9c-1.5,3,0,4.4,0,4.4s-3,5.9-1.5,10.3c0,3,3,7.4,3,7.4s-8.8,0-13.3-4.4
		c-1.5-1.5-4.4-1.5-7.4-4.4c-2.9-4.4-4.4-1.5-4.4-1.5l-4.4,2.9c-1.5-1.5-2.9-4.4-13.2,0c-11.8,3-7.4,1.5-13.3,1.5
		c0,0-4.4,1.5-10.3-1.5c-4.4-1.5-5.9-2.9-5.9-2.9l-5.9,2.9l-7.4,3l-10.3-3l-5.9,1.5l-2.9-1.5l-5.9-1.5l-7.4,1.5l-1.5-2.9
		c-7.4,2.9-4.4,4.4-11.8,2.9c0,0-2.9-1.5-4.4,0h-2.9l-2.9-2.9l-1.5,2.9c0-2.9-10.3,0-17.7,1.5l-5.9-1.5l-5.9-1.5c0,0-1.5-1.5-4.4,0
		c-3,3-7.4,1.5-7.4,1.5l-7.4,1.5l-8.8-3c-1.5,1.5,4.4,4.4-5.9,0l-5.9-1.5c-4.4,5.9-11.8,2.9-11.8,2.9h-50.1l-1.5-1.5l-1.5,1.5
		c-13.3,3-16.2,1.5-42.7-2.9c-4.4,4.4-4.4,5.9-8.8,2.9l-5.9-2.9c1.5,2.9,1.5,1.5,0,2.9c-1.5,0-20.6-1.5-13.3-1.5l-2.9-3l-1.5,3
		l-8.8,1.5c-2.9,0-4.4,0-8.8,1.5l-1.5-1.5v-1.5l-1.5-1.5l-4.4,2.9l-1.5-1.5l-1.5-1.5l-1.5,2.9c0,0-14.7,1.5-20.6,0
		c-5.9-1.5-10.3,1.5-10.3,1.5l-1.5-4.4l-5.9,4.4l-5.9-1.5l-4.4-2.9c-3,0-8.8,5.9-10.3,2.9c0,0-7.4-2.9-11.8,0
		c-7.4,3-10.3-1.5-13.3,1.5c-3,1.5-19.2-3-20.6-3l-4.4,1.5l-7.4-2.9c-2.9,2.9-7.4,1.5-7.4,1.5l-3-1.5h-8.8c0,0,3-4.4,4.4-8.8v-8.8
		c1.5-1.5,1.5-4.4,1.5-5.9l2.9-2.9v-5.9l3-13.2l8.8-4.4v-1.5l-1.5-1.5v-4.4h1.5c5.9-8.8,11.8-19.2,16.2-28l7.4-2.9
		c11.8,2.9,10.3,2.9,11.8,0l10.3,2.9l5.9-2.9l4.4,1.5l16.2,1.5l1.5-2.9c5.9,0,10.3-1.5,16.2,1.5c3,0,5.9,3,10.3,1.5
		c1.5,0,5.9-1.5,10.3,0l7.4,2.9c1.5-1.5,8.8-1.5,11.8-1.5c3,0,11.8,1.5,16.2-3c2.9,0,4.4-1.5,4.4-1.5l5.9,1.5c0,0,16.2,1.5,23.6-1.5
		c4.4-1.5,8.8,0,20.6,0l5.9,2.9c1.5,0,7.4,1.5,10.3-1.5c3-1.5,7.4,0,8.8,1.5c1.5,0,2.9-2.9,4.4-2.9c5.9,0,10.3,1.5,14.7,2.9l4.4-2.9
		l5.9,2.9l13.3-4.4l4.4,2.9c5.9,1.5,13.2,1.5,17.7-2.9c-1.5,5.9,5.9-1.5,5.9,1.5c0,4.4,5.9,2.9,5.9,1.5l19.2-2.9l1.5,1.5l2.9-1.5
		h13.3l8.8-1.5l5.9-1.5l4.4,1.5h10.3l33.9-2.9c1.5,2.9-5.9,7.4,1.5,5.9c5.9,0,3,4.4,7.4,1.5c1.5,0,1.5,1.5,2.9,3l3,2.9l4.4,3l8.8,3
		l4.4,3L1439.3,1256.6L1439.3,1256.6z"/>
	<path class="st0" d="M898.6,1508.6l7.4-5.9c0-3-1.5-1.5,0-4.4c1.5-2.9,7.4-10.3,8.8-16.2c2.9-10.3,2.9-19.2,11.8-25.1v-14.7
		c0-5.9,4.4-8.8,8.8-8.8h29.5l4.4,2.9c11.8,0,19.2-7.4,32.4-7.4l4.4,2.9c23.6,1.5,38.3,0,61.9,1.5l2.9,2.9c7.4,0,11.8-7.4,19.2-7.4
		c2.9,0,4.4,2.9,7.4,2.9c4.4,0,7.4-2.9,11.8-2.9s7.4,2.9,13.3,2.9c2.9,0,5.9-1.5,8.8-1.5l2.9-1.5c2.9,0,2.9,2.9,5.9,2.9
		c4.4,0,5.9-2.9,8.8-5.9c4.4,3,5.9,5.9,11.8,5.9c5.9,0,11.8,0,14.7-5.9l4.4,3h11.8c3,0,3-3,5.9-3l3,3l4.4-3v3h42.7
		c2.9,0,2.9,2.9,5.9,2.9c3,0,3-2.9,4.4-2.9l4.4,2.9c1.5,0,2.9-2.9,4.4-2.9h29.5c2.9,0,5.9,2.9,8.8,2.9s4.4-2.9,8.8-2.9
		c1.5,0,2.9,2.9,4.4,2.9c3,0,3-2.9,5.9-2.9s4.4,4.4,7.4,4.4c5.9,0,7.4-4.4,13.2-4.4c4.4,0,7.4,2.9,11.8,2.9c2.9,0,2.9-2.9,5.9-2.9
		l3,2.9c4.4,0,5.9-2.9,8.8-2.9c5.9,0,8.8,2.9,14.7,2.9c3,0,5.9-1.5,8.8-2.9c22.1,0,35.4-1.5,57.5,0c1.5,0,2.9,2.9,4.4,2.9
		c3,0,4.4-2.9,5.9-2.9c2.9,0,2.9,2.9,4.4,2.9l3-2.9c2.9,0,4.4,2.9,7.3,2.9l3-2.9c4.4,0,5.9,2.9,10.3,2.9c2.9,0,5.9-2.9,10.3-2.9
		l4.4,2.9l2.9-2.9c1.5,0,2.9,2.9,4.4,2.9h10.3c2.9,0,4.4-2.9,5.9-2.9l3,2.9c4.4,0,5.9-2.9,8.8-2.9l4.4,2.9c1.5,0,3-2.9,4.4-2.9h76.6
		c7.4,10.3,14.7,20.6,25.1,17.7c1.5,5.9,7.4,7.4,11.8,10.3c4.4,5.9,5.9,11.8,13.3,11.8c0,8.8,4.4,11.8,10.3,17.7
		c7.4,7.4,4.4,8.8,14.7,19.2l10.3,10.3l10.3,7.4H897.1L898.6,1508.6L898.6,1508.6z"/>
	<path class="st4" d="M1001.7,823.4h-1.5H1001.7z M1661.8,1311.2c-1.5,1.5-2.9,1.5-5.9,1.5v-4.4l-1.5-1.5c-1.5,0-5.9,1.5-5.9,1.5
		v-7.4c-1.5,1.5-3,1.5-4.4,1.5v-4.4c-2.9-3-4.4-4.4-7.4-5.9h-1.5c-1.5-1.5-2.9-7.4-5.9-5.9l-1.5-5.9c-1.5-1.5-2.9-1.5-5.9-1.5
		l-1.5,1.5l-1.5-3h-1.5l-1.5-1.5h-3c-8.8-14.7-8.8-5.9-13.2-11.8l1.5-4.4h-2.9c-2.9-1.5-5.9-5.9-7.4-8.8c-2.9,0-13.2-10.3-19.2-16.2
		h-1.5v-1.5l-1.5-1.5l-3,1.5l-2.9-4.4l1.5-1.5h-5.9c1.5-4.4-14.7-13.3-7.3-11.8l-5.9-1.5v-2.9c0,0-4.4,1.5-7.4,0v-2.9l-1.5-4.4
		l-3,4.4c-1.8-5.1-4.9-9.6-8.8-13.3c-4.4-3-8.8-4.4-11.8-10.3c-2.6-1.2-4.7-3.3-5.9-5.9c-2.9,0-4.4,0-5.9-1.5
		c-1.5-1.5-10.3-11.8-8.8-14.7h-1.5l-3,1.5c-5.9-10.3-14.7-13.3-22.1-19.2l-4.4,1.5c0,0-1.5-3-1.5-5.9l-2.9,1.5v-5.9
		c-1.5-1.5-3-2.9-4.4-5.9c0,13.3-4.4-11.8-14.7-8.8v-5.9l-5.9-4.4c1.5,1.5,0-1.5-1.5-2.9l-1.5-1.5l-1.5-1.5v5.9h-1.5
		c-2.9-4.4-2.9-8.8-7.3-7.4l-3-5.9l-2.9,1.5l-1.5-5.9l1.5,1.5c1.5-3,0-5.9-2.9-5.9c-7.4-1.5-8.9-5.9-16.2-10.3l-3,3v-5.9
		c-4.4,0-22.1-20.6-25-19.2v-1.5l-1.5-1.5c-2.9,0-5.9,1.5-8.8-3c0-1.5-4.4-7.4-1.5-7.4h-5.9v-2.9l-3-5.9l-1.5-1.5
		c-2.9,1.5-11.8-5.9-19.2-14.7v3c-4.4-3-10.3-16.2-16.2-14.7l-1.5-2.9l-4.4-1.5v-4.4h-1.5c-1.5,0-2.9-1.5-2.9-4.4l-1.5-2.9v2.9h-3
		v-1.5c0,0,1.5,0,0-2.9c-2.9-4.4-7.3-3-10.3,1.5c-2.9-3-1.5-13.3-7.3-14.7c0,0-13.3-1.5-10.3-7.4l-1.5-3l-1.5-1.5l-4.4-1.5V956
		l-4.4-2.9c0,0-1.5,4.4-4.4,1.5c-1.5-3,1.5-4.4,1.5-4.4l-2.9-3v4.4h-1.5l-4.4-7.4h1.5h-4.4l-2.9-4.4h-3l-1.5-4.4h1.5V934
		c-2.9-1.5-5.9-4.4-10.3-7.4l-11.8-4.4c0,0,0-3-1.5-5.9c-3.1-2.9-6.5-5.4-10.3-7.4c-1.5-1.5-1.5-3-4.4-4.4h-1.5l-4.4-4.4
		c-1.5-1.5-1.5-2.9-1.5-5.9l-3,3v-3l-2.9,1.5c-3-1.5-5.9-4.4-8.8-7.4c-7.4-1.5-7.4-16.2-14.7-14.7c-3-7.4-13.3-7.4-13.3-14.7
		c-4.4-4.4-10.3-8.8-20.6-16.2h-2.9l-1.5-7.4l-1.5,1.5l-1.5-1.5h-1.5v-7.4l-3,4.4l-1.5-8.8c1.5,10.3-16.2-4.4-16.2-7.4l2.9-1.5
		l-4.4,1.5l-4.4-1.5l-1.5-5.9l-1.5,4.4c-2.9,1.5-2.9-5.9-2.9-8.8v-3l-1.5-1.5v2.9l-2.9-1.5c-1.5-1.5-3-7.4-3-10.3
		c-2.9,5.9-8.8-10.3-14.7-7.4c0-1.5-3-2.9-4.4-5.9c-8.8,14.7-17.7,41.3-25.1,58.9v7.4c-7.4,4.4-1.5,10.3-5.9,16.2l-1.5-1.5l-2.9,4.4
		c1.5,1.5-10.3,17.7-8.8,19.2l-4.4,5.9l4.4-1.5c-5.9,16.2-13.3,32.4-19.2,48.6c1.5,7.4-5.9,10.3-4.4,17.7
		c-5.9,8.8-10.3,19.2-14.7,28l-10.3,23.6l-2.9,3l2.9,1.5c-8.8,7.4-7.4,7.4-7.4,16.2l-4.4,4.4l3,8.8c-10.3,1.5-1.5,13.3-8.8,14.7
		l-1.5-1.5l-2.9,3c0,1.5-3,11.8-3,14.7l-2.9,7.4c-11.8,23.6-23.6,66.3-29.5,70.7c-3,1.5,1.5,7.4,0,10.3l-4.4,5.9l1.5,4.4h1.5
		c0,2.9-5.9,4.4-5.9,7.4h3l-3,2.9c-1.5,4.4-4.4,10.3-5.9,14.7c4.4,2.9-13.3,13.3-7.4,14.7c-1.5,1.5-5.9,11.8-5.9,11.8
		c-4.4,7.4-7.4,13.3-5.9,22.1c-5.9,0-7.4,13.3-8.8,17.7c0-1.5-2.9,2.9-5.9,4.4l1.5,1.5h-1.5c0,5.9-8.8,30.9-11.8,30.9l-1.5,5.9
		c-1.5-2.9-2.9,1.5,1.5,0l-4.4,4.4l1.5,3l-4.4,4.4l1.5,1.5h-3l-1.5,3l-1.5,5.9h1.5l-1.5,3c0,1.5-4.4,13.3-4.4,7.4
		c0,1.5-2.9,7.4-2.9,10.3h-3l-1.5,5.9l1.5-1.5h1.5l-3,8.8l-2.9-1.5v4.4c-1.5,5.9-8.8,10.3-8.8,16.2c0,3,1.5,5.9-1.5,8.8
		c-7.4,8.8-20.6,44.2-26.5,56v-84c3-4.4,5.9-10.3,10.3-19.2c-3,3-4.4,5.9-5.9,1.5c-1.5-5.9,4.4-7.4,5.9-8.8h-1.5v-3
		c1.5-3,3-7.4,4.4-8.8c7.4-4.4,0-5.9,4.4-10.3l1.5,1.5c0-2.9,7.4-32.4,11.8-39.8h2.9l-1.5-3h1.5l1.5-2.9l1.5-3l1.5-2.9l1.5-3v-4.4
		l3-1.5c-1.5-1.5-4.4-1.5-1.5-3l1.5,1.5h1.5l1.5-3h-1.4l1.5-1.5l-1.5-2.9l1.5-5.9l2.9,1.5v-5.9l3-1.5l1.5-4.4l-1.5-4.4h4.4l3-8.8
		c-1.5-1.5-4.4-3,0-3v-7.4l2.9-4.4l3,1.5l1.5-10.3c1.5,1.5,1.5,1.5,1.5-1.5c5.9,0-1.5,1.5,0,4.4h1.5l1.5-2.9v-5.9
		c-3,7.4,0-5.9,1.5-10.3v-1.4l2.9,3l3-1.5v-4.4l-1.5-1.5v2.9h-1.5l1.5-1.5h-1.5v-1.5l1.5-1.5c0-1.5-1.5-8.8,2.9-7.4l1.5-4.4h1.5v-3
		h1.5c1.5-2.9-1.5-2.9,0-5.9l2.9-5.9l1.5,1.5l-1.5-1.5c3,3,3,0,3-4.4l2.9-17.7l1.5-1.5c3,1.5,1.5,4.4,3,2.9c1.5-4.4-1.5-1.5,1.5-4.4
		l-1.5-3v-2.9h1.5l-1.5,1.5h4.4c0-2.9-1.5-1.5-2.9-2.9h-1.5h2.9l1.5-3v4.4c0-1.5-1.5-10.3,0-11.8l1.5,1.5c1.5,0,2.9-1.5,5.9-1.5
		c5.9-10.3,1.5-22.1,10.3-22.1v-3l-2.9-2.9l1.5-5.9c1.5-1.5,8.8-14.7,13.3-26.5c2.9-10.3,4.4-17.7,4.4-19.2c1.5,0,4.4-4.4,5.9-7.4
		l1.5-7.4l1.5,1.5l1.5-5.9l1.5-5.9V987c4.4,0,4.4-5.9,3-7.4c1.5-1.5,2.9-2.9,4.4-5.9c1.5-5.9,3-19.2,7.4-22.1
		c5.9-2.9,0-5.9,2.9-10.3l2.9-1.5l-1.5-1.5l2.9-1.5l-1.5-1.5l1.5-5.9v-1.5c2.9-1.5,17.7-36.8,19.2-42.7l2.9-1.5l1.5-5.9V875h-1.5
		l2.9-7.4l4.4-4.4l1.5-5.9v-4.4l1.5,1.5c1.5-4.4,2.9-7.4,4.4-10.3c-1.5-1.5-1.5-3,1.5-3v-7.4l3-2.9l2.9,1.5V822l3-3l1.5,4.4V822
		l1.5-5.9c-2.9,8.8-1.5-10.3,1.5-11.8l1.5,1.5l4.4-1.5l-1.5-4.4v-1.5v4.4l-1.5-1.5v-2.9h1.5c0-2.9-1.5-8.8,3-7.4l1.5-5.9h1.5
		l-1.5-2.9h3l-1.5-4.4l4.4-5.9v1.5v-1.5c1.5,0,4.4-2.9,4.4-4.4h-2.9c-1.5-1.5-1.5-4.4-1.5-4.4c5.9-1.5-1.5-7.4,5.9-1.5l-1.5-1.5
		v-1.5c0-2.9-1.5-5.9,0-7.4c11.8-8.8,8.8-22.1,10.3-23.6l1.5,2.9l3-7.4c0,1.5,2.9,4.4,4.4,5.9v-2.9l1.5,2.9l1.5-1.5v1.5
		c4.4-1.5,11.8,7.4,16.2,5.9l3,4.4l1.5,2.9h4.4l1.5,4.4h4.4v2.9c2.9,4.4,7.4,7.4,4.4,7.4l4.4,1.5v2.9l2.9-2.9l7.4,4.4v4.4l1.5,1.5
		l3-3c-1.5,17.7,14.7,8.8,11.8,19.2l4.4-2.9l2.9,7.4l1.5-1.5v8.8l5.9-2.9v7.4c0-4.4,5.9,1.5,7.4-2.9l2.9,4.4h3
		c1.5,2.9,2.9,5.9,2.9,8.8l4.4,1.5l4.4,5.9l7.4,4.4v4.4h3c1.5,1.5-3,4.4,0,5.9h5.9c-5.9,4.4,5.9,7.4,8.8,7.4l3,5.9
		c1.5,1.5,7.4,4.4,10.3,1.5l1.5,5.9c3,3,5.9,7.4,7.4,10.3c1.5-2.9,0-7.4-1.5-10.3l4.4,3c0,2.9,4.4,5.9,8.8,13.3l5.9,1.5l1.5,7.4
		l4.4,4.4c0-1.5,1.5-7.4,5.9-3v3h2.9l1.5,2.9c3,1.5,5.9,4.4,5.9,5.9h1.5c4.4-1.5,7.4,4.4,7.4,7.4v2.9c4.4,2.9,8.8,5.9,13.3,7.4
		l1.5,2.9c4.4,1.5,8.8,2.9,11.8,5.9v7.4h4.4v1.5l8.8,8.8c2.9,0,4.4,1.5,7.4,2.9c4.4,2.9,4.4,7.4,7.4,11.8h1.5l1.5-2.9v1.5l1.5,2.9
		c2.9,0,7.4-1.5,10.3,4.4c2.9,1.5,0,7.4,2.9,8.8h5.9c-1.5,2.9,2.9,7.4,8.8,7.4l1.5,3l1.5,2.9l1.5,1.5l1.5,2.9v-1.5l2.9,1.5l-1.5,1.5
		l1.5,4.4l2.9-4.4c0,1.5,13.3,14.7,28,28l2.9,1.5h4.4l1.5,5.9l1.5,1.5h1.5v2.9l1.4-1.5v3l1.5,1.5v-1.5l4.4,1.5
		c1.5,1.5,7.3,8.8,5.9,5.9l5.9,1.5c0,1.5,5.9,8.8,8.8,11.8v1.5c1.5,0,2.9-4.4,4.4-3c1.5,1.5,1.5,5.9,2.9,7.4v-1.5l1.5-1.5
		c2.9,1.5,4.4,4.4,2.9,7.4l4.4,5.9h4.4l1.5,7.4l5.9,3c0-1.5,3-3,4.4,0v2.9l1.5,3l1.5-3h1.5l4.4,8.8h-1.5h5.9l3,5.9l2.9-1.5l2.9,7.4
		l-2.9-1.5v2.9l1.5,3l2.9,1.5l4.4-1.5c4.4,2.9,5.9,5.9,14.7,8.8v3l2.9,2.9c1.5,3,1.5,5.9,2.9,8.8l11.8,3c0,7.4,7.4,7.4,8.9,5.9v1.5
		h1.5v1.5c2.9-1.5,2.9,4.4,1.5,3l1.5,2.9c4.4,8.8,11.8-7.4,19.2,16.2h5.9v5.9h2.9l-2.9,5.9h2.9l4.4-2.9c2.9,2.9,2.9,7.4,4.4,10.3
		h2.9l1.5,3c1.5,0,2.9,0,5.9-3v5.9h3l1.5,3l1.5,1.5l1.5-1.5v1.5l4.4,2.9l-1.5,1.5h4.4v-1.5v1.5l2.9,5.9v1.5c3,1.5,5.9,1.5,7.4,4.4
		c4.4,0,4.4,1.5,4.4,4.4h4.4l1.5,3l3,4.4h1.5v2.9l1.5-1.5v8.8l1.5-5.9l4.4,1.5h-1.5l1.5,8.8c1.5-2.9,7.4,1.5,7.4-2.9l2.9,4.4h4.4
		c8.8,14.7,8.8,5.9,11.8,11.8l1.5,5.9c0-3,4.4-4.4,5.9-1.5c1.5,4.4,5.9,13.3,8.8,19.2l3-4.4l2.9,7.4h2.9v-1.5v1.5l3,5.9l1.5,1.5
		v-1.5c2.9,1.5,4.4,3,4.4,4.4v1.5c1.5,3,3,4.4,4.4,4.4c2.9-1.5,4.4,4.4,4.4,1.5v3h5.9l-1.5,2.9l1.5,1.5v1.5l2.9-1.5l-1.5,3v1.5
		c1.5,2.9,4.4,1.5,5.9,0l1.5,2.9l1.5,1.5h3c1.5,3,0,7.4,1.5,10.3l1.5,1.5l1.5,1.5l4.4-1.5v1.5h2.9c0,0,0,2.9,1.5,4.4h4.4l-3,4.4
		l3,4.4h1.5l4.4,4.4v39.8c-13.2-13.3-28-26.5-42.7-36.8l-1.5-7.4c0,4.4-4.4,2.9-5.9,1.5c-3-1.5-8.8-16.2-11.8-19.2L1661.8,1311.2
		L1661.8,1311.2z"/>
	<path class="st4" d="M1082.8,923.6c-11.8,16.2-7.4,42.7-26.5,50.1c-1.5-7.4,8.8-13.3,4.4-19.2c7.4-5.9,1.5-17.7,13.3-20.6
		c-3-7.4,2.9-10.3,2.9-14.7C1081.3,916.3,1079.8,922.2,1082.8,923.6L1082.8,923.6z M1056.2,982.6v7.4c-1.5,0-4.4,1.5-5.9-1.5
		C1050.3,984,1054.8,969.3,1056.2,982.6z M1050.3,995.8c1.5,2.9-1.5,4.4-2.9,7.4c0,0,1.5,1.5,1.5,2.9c-1.5,2.9-4.4,1.5-7.4,2.9
		C1043,1001.7,1044.5,994.4,1050.3,995.8L1050.3,995.8z M984,1163.8c-10.3,1.5-1.5,13.3-8.8,16.2l-4.4-5.9
		c10.3-1.5-2.9-20.6,10.3-19.2L984,1163.8L984,1163.8z M963.4,1206.5c-7.4,4.4-1.5,10.3-5.9,14.7c-2.9,8.8-10.3,16.2-10.3,26.5
		c-10.3-4.4,2.9-13.3,1.5-20.6c2.9-7.4,7.4-14.7,8.8-20.6H963.4z M880.9,1423.1c-3,2.9-7.4,1.5-11.8,1.5c-2.9-7.4,7.4-10.3,5.9-16.2
		C879.4,1409.9,882.4,1417.2,880.9,1423.1L880.9,1423.1z M866.2,1437.9c2.9,20.6-16.2,30.9-13.3,51.6c-1.5,3-4.4,4.4-8.8,4.4
		c-1.5-19.2,10.3-33.9,13.3-51.6C858.8,1439.3,863.2,1437.9,866.2,1437.9z M842.6,1510.1c0,3,0,3-1.5,4.4l-11.8-1.5
		C826.4,1502.7,842.6,1501.2,842.6,1510.1L842.6,1510.1z M889.7,1393.7c-1.5,8.8-4.4,11.8-13.3,10.3c-4.4-1.5,0-4.4,1.5-7.4
		c1.5,0,3,1.5,4.4,1.5C883.9,1395.1,883.9,1389.2,889.7,1393.7L889.7,1393.7z M1087.2,903c0,4.4-1.5,8.8-5.9,11.8l-2.9-1.5
		C1081.3,908.9,1078.3,900.1,1087.2,903z M992.9,1137.3c0,1.5-1.5,3-2.9,4.4H987v-5.9C988.5,1135.8,991.4,1134.3,992.9,1137.3z
		 M988.5,1146.1c0,2.9,1.5,5.9-1.5,5.9c-4.4,1.5-3-4.4-4.4-7.4C985.5,1144.6,988.5,1144.6,988.5,1146.1z M866.2,1424.6
		c-3,1.5-4.4,0-5.9-1.5c-1.5-3,2.9-7.4,5.9-5.9V1424.6z"/>
	<path class="st4" d="M945.7,1246.3c1.5,1.5,0,3-1.5,3h-2.9l-1.5-4.4C942.8,1244.8,945.7,1243.4,945.7,1246.3L945.7,1246.3z
		 M942.8,1255.2c0,1.5,0,4.4-1.5,5.9c-4.4,1.5-4.4-4.4-4.4-7.4C938.4,1253.7,941.3,1253.7,942.8,1255.2z"/>
	<path class="st4" d="M970.8,1187.4v8.8h-2.9c-1.5,3,1.5,10.3-4.4,10.3c1.5,2.9,0,4.4-2.9,5.9v13.3h-5.9c2.9,7.4-10.3,2.9-1.5,11.8
		c-5.9-1.5,0,7.4-5.9,7.4v1.5h-4.4c-1.5-4.4,3-4.4,3-7.4c0-1.5,5.9,0,2.9-3c-2.9,0-1.5-4.4-2.9-4.4l1.5-4.4c2.9,0,2.9-2.9,5.9-2.9
		v-1.5c-1.5-1.5-4.4-1.5-2.9-4.4c1.5,0,0-4.4,1.5-4.4c3-2.9-1.5-13.3,4.4-13.3v-3l4.4-2.9v-3l2.9-2.9v-7.4
		C966.4,1181.5,982.6,1180,970.8,1187.4z M991.4,1143.2v3c-2.9-1.5-2.9,4.4-5.9,4.4l-3,3c-1.5,1.5,0-3-1.5-3
		c-1.5-5.9,4.4-1.5,2.9-7.4c4.4,3,1.5-4.4,4.4-2.9l1.5,1.5L991.4,1143.2z M931,1280.2c-1.5,5.9,4.4,4.4,3,10.3
		c-3-1.5-1.5,1.5-4.4,1.5c1.5,2.9,0,5.9,1.5,8.8v5.9c-2.9-1.5-1.5,0-2.9,1.5c2.9,10.3-7.4,7.4-4.4,17.7h-2.9v7.4
		c-5.9-3-1.5,4.4-5.9,3l-1.5,2.9h4.4c0,3-2.9,1.5-2.9,3l-1.5,5.9h-2.9v8.8c-2.9-1.5-2.9,1.5-2.9,3v4.4h-3v8.8
		c-4.4-2.9-7.4,7.4-10.3,5.9c-1.5,3,1.5,8.8-1.5,10.3c-4.4,0-1.5-7.4-3-8.8c8.8-3-1.5-8.8,1.5-10.3c4.4,0,1.5-4.4,5.9-4.4v-4.4
		c2.9,0,1.5-2.9,2.9-2.9v-8.8c7.4-1.5,1.5-14.7,5.9-17.7h1.5c0,1.5,0,4.4,1.5,4.4l1.5-4.4h2.9c2.9-3-1.5-13.3,4.4-13.3
		c-1.5-1.5,0-4.4-2.9-3c0-1.5,0-4.4,2.9-3c-1.5-5.9,3-7.4,4.4-11.8h1.5v-7.4h2.9c0-1.5-2.9-2.9-2.9-4.4c2.9-1.5,4.4,0,4.4,1.5
		c1.5-1.5,2.9-3,2.9-4.4l-2.9-1.5C926.6,1283.2,928.1,1281.7,931,1280.2L931,1280.2z M1038.6,1012c0,4.4,1.5,5.9,4.4,7.4
		c-1.5,1.5-1.5,4.4-4.4,2.9v-2.9c-3-1.5-1.5,2.9-3,2.9l1.5,1.5h-1.5c3,8.8-7.4,7.4-2.9,16.2c0,1.5-2.9,0-4.4,2.9
		c0,2.9,1.5,10.3-1.5,10.3v2.9l-1.5,1.5c1.5,0,0,4.4,0,5.9v1.5c-5.9,0-1.5,4.4-4.4,7.4c0,3,1.5,3,1.5,7.4h-1.5l-1.5,8.8
		c-4.4-1.5-4.4,4.4-8.8,2.9c-2.9,0-1.5,4.4-1.5,5.9c-7.4-2.9-1.5,11.8-5.9,13.3c-1.5,3,0,8.8-1.5,11.8c-5.9-2.9-4.4,1.5-4.4,2.9
		c0,0,0,4.4-2.9,0c-1.5-2.9-3,0-3,0v-8.8c3,0,3-2.9,4.4-2.9c0-3-1.5-8.8,3-7.4c1.5-4.4-1.5-14.7,2.9-16.2c1.5-2.9-1.5-11.8,4.4-11.8
		v-2.9h4.4c1.5-3,0-7.4,4.4-7.4c0-1.5,1.5-7.4,0-7.4v-3c1.5-1.5,1.5-1.5,2.9-1.5l1.5-8.8h2.9v-13.3c3,0,3-3,4.4-3
		c0-1.5,4.4-4.4,1.5-5.9c-1.5-1.5,0,1.5-1.5-1.5c4.4-1.5,3,0,5.9,0v-4.4c4.4,1.5,0-3,2.9-3v-4.4L1038.6,1012L1038.6,1012
		L1038.6,1012z M875,1437.9c-3,0-4.4-1.5-5.9-3c-1.5-3,2.9-7.4,4.4-5.9L875,1437.9z M941.3,1268.4c-1.5-1.5-1.5,1.5-3,1.5v11.8
		c-4.4,0-4.4-3-4.4-7.4h-1.5l-1.5,2.9h-2.9v-2.9l4.4-1.5c-1.5-1.5-1.5-1.5-1.5-3c4.4-1.5,3-8.8,10.3-5.9L941.3,1268.4L941.3,1268.4
		L941.3,1268.4z M245.9,1753.2c1.5-4.4,8.8-7.4,17.7-7.4v-5.9H209v5.9c7.4,0,13.3,1.5,16.2,4.4c3,3,4.4,8.8,4.4,17.7v89.9
		c0,17.7-2.9,30.9-7.4,38.3c-5.9,10.3-16.2,16.2-32.4,16.2c-7.4,0-13.3-3-19.2-5.9c-11.8-7.4-17.7-23.6-17.7-48.6v-89.9
		c0-8.8,1.5-14.7,4.4-17.7c3-3,8.8-4.4,16.2-4.4v-5.9h-63.4v5.9c5.9,0,8.8,0,11.8,1.5c5.9,1.5,8.8,8.8,8.8,20.6v89.9
		c0,13.2,1.5,25,4.4,33.9c5.9,20.6,23.6,29.5,53,29.5c23.6,0,38.3-5.9,45.7-17.7c5.9-8.8,8.8-25.1,8.8-45.7v-89.9
		C242.9,1760.5,244.4,1756.1,245.9,1753.2L245.9,1753.2z M313.6,1919.7v-5.9h-8.8c-5.9-2.9-8.8-8.8-8.8-19.2v-32.4
		c0-8.8,1.5-17.7,4.4-26.5c2.9-7.4,5.9-13.2,10.3-19.2c5.9-7.4,11.8-10.3,16.2-10.3c8.8,0,13.3,2.9,14.7,10.3
		c1.5,3,1.5,10.3,1.5,23.6v54.5c0,7.4-1.5,11.8-4.4,14.7c-2.9,3-7.4,4.4-13.3,4.4v5.9h54.5v-5.9h-8.8c-5.9-2.9-8.8-8.8-8.8-19.2
		v-60.4c0-14.7-1.5-25.1-4.4-29.5c-4.4-7.4-11.8-11.8-23.6-11.8c-16.2,0-29.5,11.8-38.3,35.4V1793l-36.8,7.4v4.4
		c5.9,0,10.3,1.5,13.3,2.9c3,3,4.4,7.4,4.4,13.3v73.7c0,7.4-1.5,11.8-2.9,14.7c-2.9,3-7.4,4.4-14.7,4.4v5.9H313.6L313.6,1919.7z
		 M446.2,1919.7v-5.9h-8.8c-5.9-2.9-8.8-8.8-8.8-19.2V1793l-36.8,7.4v4.4c5.9,0,10.3,1.5,13.3,2.9c3,3,4.4,7.4,4.4,13.3v73.7
		c0,7.4-1.5,11.8-4.4,14.7c-1.5,3-7.4,4.4-13.3,4.4v5.9H446.2z M428.6,1763.5c1.5-3,2.9-5.9,2.9-10.3s0-7.4-2.9-10.3
		c-3-3-5.9-4.4-10.3-4.4s-7.4,1.5-10.3,4.4c-1.5,2.9-3,5.9-3,10.3s1.5,7.4,4.4,10.3c1.5,3,4.4,4.4,8.8,4.4
		S425.6,1766.4,428.6,1763.5z M512.5,1921.2l33.9-97.2c2-6.1,4.5-12,7.4-17.7c4.4-3,8.8-5.9,16.2-5.9v-4.4h-42.7v4.4
		c7.4,0,10.3,3,10.3,8.8c0,3-1.5,5.9-3,11.8l-23.6,72.2l-28-73.7c-1.5-4.4-2.9-8.8-2.9-13.3s4.4-5.9,10.3-5.9v-4.4h-50.1v4.4
		c4.4,0,8.8,1.5,11.8,3c4.4,3,8.8,10.3,13.3,22.1l36.8,95.8L512.5,1921.2L512.5,1921.2L512.5,1921.2z M584.7,1821
		c4.4-13.3,11.8-19.2,22.1-19.2c5.9,0,10.3,1.5,13.3,4.4c5.9,5.9,10.3,16.2,10.3,28h-48.6C581.8,1831.3,581.8,1826.8,584.7,1821
		L584.7,1821z M631.9,1912.3c-16.2,0-29.5-7.4-38.3-22.1c-7.4-13.3-11.8-28-11.8-47.2H651v-5.9c0-8.8-1.5-17.7-5.9-25.1
		c-7.4-11.8-19.2-19.2-35.4-19.2c-32.4,0-48.6,20.6-48.6,60.4c0,14.7,3,28,7.4,38.3c8.8,20.6,26.5,29.5,51.6,29.5
		c10.3,0,20.6-1.5,28-4.4v-8.8c-4.4,3-10.3,4.4-17.7,4.4L631.9,1912.3L631.9,1912.3L631.9,1912.3z M717.4,1919.7v-5.9h-8.8
		c-5.9-2.9-8.8-8.8-8.8-19.2v-39.8c0-14.7,1.5-26.5,7.4-33.9c3-5.9,7.4-8.8,10.3-8.8c0,0,2.9,0,5.9,3c2.9,1.5,5.9,2.9,7.4,2.9
		c7.4,0,11.8-4.4,11.8-13.2c0-3-1.5-5.9-3-8.8c-2.9-1.5-5.9-3-8.8-3c-14.7,0-25.1,8.8-30.9,28v-28l-36.8,7.4v4.4
		c5.9,0,10.3,1.5,13.3,2.9c2.9,3,4.4,7.4,4.4,13.3v73.7c0,7.4-1.5,11.8-4.4,14.7c-2.9,3-7.4,4.4-13.3,4.4v5.9L717.4,1919.7
		L717.4,1919.7L717.4,1919.7z M819,1797.4c-9-3-18.5-4.5-28-4.4c-9.3,0-18.5,2.5-26.5,7.4c-8.8,5.9-11.8,14.7-11.8,26.5
		c0,8.8,3,17.7,11.8,25.1c3,3,8.8,5.9,16.2,10.3c8.8,4.4,14.7,8.8,17.7,11.8c5.9,5.9,8.8,11.8,8.8,17.7s-1.5,11.8-7.4,14.7
		c-4,3.8-9.2,5.9-14.7,5.9c-14.7,0-25-7.4-29.5-25.1h-5.9l2.9,29.5c7.4,2.9,17.7,4.4,29.5,4.4c13.3,0,22.1-1.5,30.9-7.4
		c8.8-5.9,13.3-16.2,13.3-28c0-8.8-1.5-16.2-5.9-22.1c-3-4.4-7.4-8.8-16.2-13.3c-10.3-5.9-17.7-10.3-22.1-14.7
		c-7.4-4.4-11.8-10.3-11.8-17.7c0-2.9,1.5-5.9,2.9-8.8c4.4-4.4,10.3-7.4,17.7-7.4c11.8,0,20.6,8.8,23.6,23.6h5.9L819,1797.4
		L819,1797.4z M892.7,1919.7v-5.9h-8.8c-5.9-2.9-8.8-8.8-8.8-19.2V1793l-36.8,7.4v4.4c5.9,0,10.3,1.5,13.3,2.9c3,3,4.4,7.4,4.4,13.3
		v73.7c0,7.4-1.5,11.8-4.4,14.7c-2.9,3-7.4,4.4-13.3,4.4v5.9H892.7L892.7,1919.7z M873.5,1763.5c2.9-3,4.4-5.9,4.4-10.3
		s-1.5-7.4-4.4-10.3c-1.5-3-5.9-4.4-8.8-4.4c-4.4,0-7.4,1.5-10.3,4.4c-3,2.9-3,5.9-3,10.3s1.5,7.4,3,10.3c2.9,3,5.9,4.4,10.3,4.4
		C867.6,1767.9,872.1,1766.4,873.5,1763.5z M929.5,1823.9c4.4-13.3,11.8-20.6,20.6-20.6c10.3,0,16.2,7.4,20.6,20.6
		c3,8.8,4.4,20.6,4.4,33.9c0,13.2-1.5,23.6-4.4,33.9c-4.4,13.3-10.3,20.6-20.6,20.6c-5.9,0-11.8-3-14.7-8.8
		c-7.4-8.8-10.3-25.1-10.3-45.7C925.1,1844.5,926.6,1832.8,929.5,1823.9z M1012,1915.3v-4.4c-5.9,0-10.3-1.5-13.3-4.4
		c-3-1.5-4.4-7.4-4.4-13.3v-160.6l-36.8,5.9v5.9c5.9,0,10.3,1.5,13.3,2.9c3,3,4.4,7.4,4.4,13.3v53c-5.9-13.3-14.7-20.6-28-20.6
		c-14.7,0-26.5,7.4-33.9,20.6c-5.9,10.3-10.3,25.1-10.3,44.2c-0.1,15.3,3.5,30.5,10.3,44.2c7.4,13.2,19.2,19.2,33.9,19.2
		c5.9,0,10.3-1.5,16.2-5.9c5.9-2.9,10.3-8.8,11.8-13.2v19.2L1012,1915.3L1012,1915.3z M1079.8,1899.1c-4.4,7.4-10.3,11.8-19.2,11.8
		c-4.4,0-8.8-3-11.8-7.4c-2.9-5.9-4.4-10.3-4.4-16.2c0-17.7,14.7-26.5,42.7-28v16.2C1087.2,1884.3,1084.2,1893.2,1079.8,1899.1z
		 M1115.2,1915.3c-5.9,0-10.3-4.4-10.3-13.2v-66.3c0-8.8,0-16.2-3-22.1c-4.4-13.3-16.2-20.6-35.4-20.6c-5.9,0-11.8,1.5-17.7,3
		c-14.7,4.4-22.1,13.2-22.1,23.6c0,7.4,4.4,11.8,11.8,11.8c7.4,0,11.8-4.4,11.8-13.3c0-7.4,1.5-10.3,4.4-13.2c1.5-1.5,5.9-3,11.8-3
		c5.9,0,10.3,1.5,13.3,5.9c4.4,4.4,7.4,16.2,7.4,32.4v10.3l-19.2,2.9c-7.4,0-14.7,1.5-20.6,4.4c-16.2,5.9-23.6,17.7-23.6,33.9
		c0,5.9,1.5,10.3,4.4,14.7c4.4,10.3,13.3,14.7,23.6,14.7c14.7,0,26.5-5.9,33.9-19.2h1.5c0,13.2,5.9,19.2,17.7,19.2
		c5.9,0,11.8,0,17.7-1.5v-5.9C1119.6,1913.8,1116.7,1915.3,1115.2,1915.3L1115.2,1915.3z M1159.4,1823.9
		c4.4-13.3,11.8-20.6,20.6-20.6c10.3,0,16.2,7.4,20.6,20.6c2.9,8.8,4.4,20.6,4.4,33.9c0,13.2-1.5,23.6-4.4,33.9
		c-4.4,13.3-10.3,20.6-20.6,20.6c-5.9,0-11.8-3-14.7-8.8c-7.4-8.8-10.3-25.1-10.3-45.7C1155,1844.5,1156.4,1832.8,1159.4,1823.9
		L1159.4,1823.9z M1241.9,1915.3v-4.4c-5.9,0-10.3-1.5-13.3-4.4c-3-1.5-4.4-7.4-4.4-13.3v-160.6l-36.8,5.9v5.9
		c5.9,0,10.3,1.5,13.3,2.9c2.9,3,4.4,7.4,4.4,13.3v53c-5.9-13.3-14.7-20.6-28-20.6c-14.7,0-26.5,7.4-33.9,20.6
		c-5.9,10.3-8.8,25.1-8.8,44.2c0,17.7,2.9,32.4,8.8,44.2c7.4,13.2,19.2,19.2,33.9,19.2c5.9,0,10.3-1.5,16.2-5.9
		c5.9-2.9,10.3-8.8,11.8-13.2v19.2L1241.9,1915.3L1241.9,1915.3z M1345,1823.9c4.4-13.3,11.8-20.6,20.6-20.6
		c10.3,0,16.2,7.4,20.6,20.6c2.9,8.8,4.4,20.6,4.4,33.9c0,13.2-1.5,23.6-4.4,33.9c-4.4,13.3-10.3,20.6-20.6,20.6
		c-5.9,0-11.8-3-14.7-8.8c-7.4-8.8-10.3-25.1-10.3-45.7C1340.6,1844.5,1342.1,1832.8,1345,1823.9z M1427.5,1915.3v-4.4
		c-5.9,0-10.3-1.5-13.2-4.4c-2.9-1.5-4.4-7.4-4.4-13.3v-160.6l-36.9,5.9v5.9c5.9,0,10.3,1.5,13.3,2.9c2.9,3,4.4,7.4,4.4,13.3v53
		c-5.9-13.3-14.7-20.6-28-20.6c-14.7,0-26.5,7.4-33.9,20.6c-5.9,10.3-8.8,25.1-8.8,44.2c0,17.7,3,32.4,8.8,44.2
		c7.4,13.2,19.2,19.2,33.9,19.2c5.9,0,11.8-1.5,16.2-5.9c5.9-2.9,10.3-8.8,11.8-13.2v19.2L1427.5,1915.3L1427.5,1915.3z M1460,1821
		c5.9-13.3,13.3-19.2,23.6-19.2c5.9,0,10.3,1.5,13.2,4.4c5.9,5.9,8.8,16.2,8.8,28H1457C1457,1831.3,1458.5,1826.8,1460,1821z
		 M1507.1,1912.3c-16.2,0-28-7.4-36.8-22.1c-8.8-13.3-13.2-28-13.2-47.2h70.7v-5.9c0-8.8-2.9-17.7-5.9-25.1
		c-7.4-11.8-19.2-19.2-35.4-19.2c-32.4,0-48.6,20.6-48.6,60.4c0,14.7,1.5,28,7.4,38.3c8.8,20.6,25,29.5,50.1,29.5
		c11.8,0,20.6-1.5,29.5-4.4v-8.8C1520.4,1910.8,1514.5,1912.3,1507.1,1912.3L1507.1,1912.3z M1647.1,1919.7v-5.9
		c-4.4,0-7.4,0-8.8-1.5c-5.9,0-8.8-3-8.8-8.8c0-1.5,1.5-5.9,3-11.8l10.3-32.4h60.4l10.3,33.9c1.5,4.4,2.9,8.9,2.9,11.8
		c0,5.9-5.9,8.8-17.7,8.8v5.9h61.9v-5.9c-4.4,0-8.8-1.5-11.8-2.9c-5.9-4.4-10.3-11.8-14.7-25.1l-50.1-147.3h-13.2l-48.6,145.9
		c-3,7.4-5.9,14.7-7.4,17.7c-4.4,7.4-11.8,11.8-22.1,11.8v5.9L1647.1,1919.7L1647.1,1919.7L1647.1,1919.7z M1700.1,1849h-54.5l28-81
		L1700.1,1849z M1815.1,1919.7v-5.9h-10.3c-4.4-2.9-7.4-8.8-7.4-19.2v-162.1l-36.8,5.9v5.9c5.9,0,10.3,1.5,13.3,2.9
		c2.9,3,4.4,7.4,4.4,13.3v134.1c0,7.4-1.5,11.8-4.4,14.7c-3,3-7.4,4.4-13.3,4.4v5.9L1815.1,1919.7L1815.1,1919.7z M1879.9,1919.7
		v-5.9h-10.3c-5.9-2.9-8.8-8.8-8.8-19.2V1793l-36.8,7.4v4.4c5.9,0,10.3,1.5,13.3,2.9c2.9,3,4.4,7.4,4.4,13.3v73.7
		c0,7.4-1.5,11.8-2.9,14.7c-2.9,3-7.4,4.4-14.7,4.4v5.9H1879.9z M1860.7,1763.5c3-3,4.4-5.9,4.4-10.3s-1.5-7.4-4.4-10.3
		c-2.9-3-5.9-4.4-10.3-4.4c-2.9,0-7.4,1.5-8.8,4.4c-2.9,2.9-4.4,5.9-4.4,10.3s1.5,7.4,4.4,10.3c3,3,5.9,4.4,8.8,4.4
		C1854.9,1767.9,1857.8,1766.4,1860.7,1763.5z M1962.4,1912.3c-10.3,0-20.6-3-28-10.3c-17.7-11.8-25.1-32.4-25.1-57.5
		c0-8.8,1.5-17.7,2.9-23.6c5.9-13.3,13.3-19.2,25.1-19.2c10.3,0,14.7,4.4,16.2,11.8c1.5,5.9,2.9,8.9,4.4,11.8c1.5,3,4.4,5.9,8.8,5.9
		c7.4,0,11.8-4.4,11.8-13.3s-4.4-16.2-13.3-20.6c-7.4-3-14.7-4.4-25.1-4.4c-11.8,0-20.6,3-29.5,7.4c-14.7,10.3-22.1,28-22.1,53
		c0,22.1,5.9,38.3,14.7,50.1c10.3,11.8,26.5,17.7,47.2,17.7c8.8,0,17.7-1.5,25-4.4v-7.4C1969.8,1910.8,1965.3,1912.3,1962.4,1912.3
		L1962.4,1912.3z M2049.4,1899.1c-5.9,7.4-11.8,11.8-19.2,11.8c-5.9,0-8.9-3-11.8-7.4c-2.9-5.9-4.4-10.3-4.4-16.2
		c0-17.7,13.2-26.5,41.2-28v16.2C2055.2,1884.3,2053.8,1893.2,2049.4,1899.1L2049.4,1899.1z M2084.7,1915.3
		c-7.4,0-10.3-4.4-10.3-13.2v-66.3c0-8.8-1.5-16.2-2.9-22.1c-4.4-13.3-16.2-20.6-35.4-20.6c-5.9,0-11.8,1.5-19.2,3
		c-13.2,4.4-20.6,13.2-20.6,23.6c0,7.4,2.9,11.8,10.3,11.8c7.4,0,11.8-4.4,11.8-13.3c0-7.4,1.5-10.3,4.4-13.2c2.9-1.5,7.4-3,11.8-3
		c5.9,0,11.8,1.5,14.7,5.9c4.4,4.4,5.9,16.2,5.9,32.4v10.3l-17.7,2.9c-8.8,0-16.2,1.5-22.1,4.4c-14.7,5.9-23.6,17.7-23.6,33.9
		c0,5.9,1.5,10.3,4.4,14.7c5.9,10.3,13.2,14.7,25,14.7c14.7,0,25.1-5.9,33.9-19.2c0,13.2,5.9,19.2,17.7,19.2c5.9,0,11.8,0,17.7-1.5
		v-5.9C2087.7,1913.8,2086.2,1915.3,2084.7,1915.3z M2153.9,1919.7v-5.9h-10.3c-4.4-2.9-7.3-8.8-7.3-19.2v-32.4
		c0-8.8,1.5-17.7,4.4-26.5c2.9-7.4,5.9-13.2,10.3-19.2c5.9-7.4,10.3-10.3,16.2-10.3c7.4,0,11.8,2.9,14.7,10.3c0,3,1.5,10.3,1.5,23.6
		v54.5c0,7.4-1.5,11.8-4.4,14.7c-2.9,3-7.4,4.4-14.7,4.4v5.9h56v-5.9h-10.3c-5.9-2.9-8.8-8.8-8.8-19.2v-60.4
		c0-14.7-1.5-25.1-4.4-29.5c-2.9-7.4-10.3-11.8-22.1-11.8c-17.7,0-31,11.8-38.3,35.4V1793l-36.9,7.4v4.4c5.9,0,10.3,1.5,13.3,2.9
		c2.9,3,4.4,7.4,4.4,13.3v73.7c0,7.4-1.5,11.8-4.4,14.7c-2.9,3-7.4,4.4-13.3,4.4v5.9H2153.9z M2282.1,1912.3
		c-8.8,0-13.3-1.5-16.2-4.4c-2.9-3-5.9-10.3-5.9-19.2v-84h31v-8.8h-31v-39.8h-5.9c0,8.9-1.5,16.2-3,22.1
		c-5.9,11.8-14.7,17.7-28,17.7v8.8h19.2v76.6c0,16.2,1.5,28,5.9,32.4c4.4,4.4,14.7,7.4,32.4,7.4h10.3v-8.8L2282.1,1912.3
		L2282.1,1912.3z M2323.4,1821c4.4-13.3,11.8-19.2,22.1-19.2c5.9,0,10.3,1.5,13.3,4.4c5.9,5.9,10.3,16.2,10.3,28h-48.6
		C2320.4,1831.3,2320.4,1826.8,2323.4,1821z M2369.1,1912.3c-14.7,0-28-7.4-36.8-22.1c-7.4-13.3-11.8-28-11.8-47.2h69.3v-5.9
		c0-8.8-1.5-17.7-5.9-25.1c-7.3-11.8-19.2-19.2-35.4-19.2c-32.4,0-48.6,20.6-48.6,60.4c0,14.7,2.9,28,7.4,38.3
		c8.8,20.6,26.5,29.5,51.6,29.5c10.3,0,20.6-1.5,28-4.4v-8.8C2382.3,1910.8,2376.4,1912.3,2369.1,1912.3L2369.1,1912.3z"/>
</g>
</svg>
